<svg width="12" height="17" viewBox="0 0 12 17" fill="none" xmlns="http://www.w3.org/2000/svg">
<path d="M5.428 2.396C5.548 2.396 5.664 2.4 5.776 2.408C5.792 2.392 5.812 2.384 5.836 2.384C5.86 2.376 5.88 2.368 5.896 2.36C5.936 2.472 5.96 2.6 5.968 2.744C5.976 2.88 5.98 3.02 5.98 3.164C5.98 3.3 5.976 3.428 5.968 3.548C5.968 3.66 5.968 3.784 5.968 3.92C5.968 4.12 5.972 4.328 5.98 4.544C5.988 4.76 5.992 4.972 5.992 5.18V5.36C6.008 5.552 6.02 5.744 6.028 5.936C6.036 6.12 6.04 6.304 6.04 6.488C6.04 6.832 6.036 7.176 6.028 7.52C6.02 7.864 6.016 8.204 6.016 8.54L6.004 8.528L5.992 8.804C5.976 8.836 5.964 8.88 5.956 8.936C5.948 8.984 5.932 9.028 5.908 9.068V9.128C5.908 9.208 5.888 9.284 5.848 9.356C5.808 9.428 5.78 9.504 5.764 9.584C5.66 9.84 5.528 10.08 5.368 10.304C5.216 10.528 5.012 10.692 4.756 10.796C4.524 10.884 4.272 10.96 4 11.024C3.736 11.088 3.468 11.12 3.196 11.12C3.004 11.12 2.812 11.1 2.62 11.06C2.436 11.02 2.264 10.956 2.104 10.868C1.944 10.78 1.804 10.668 1.684 10.532C1.564 10.388 1.476 10.216 1.42 10.016C1.356 9.824 1.304 9.668 1.264 9.548C1.232 9.428 1.212 9.344 1.204 9.296L1.144 9.236C1.144 9.18 1.14 9.12 1.132 9.056C1.132 8.992 1.112 8.932 1.072 8.876C1.072 8.644 1.056 8.428 1.024 8.228C0.992 8.02 0.976 7.796 0.976 7.556L0.904 7.508L1.024 7.412C1.04 7.428 1.052 7.436 1.06 7.436C1.076 7.436 1.084 7.436 1.084 7.436C1.092 7.428 1.104 7.424 1.12 7.424C1.184 7.424 1.256 7.436 1.336 7.46C1.416 7.476 1.492 7.484 1.564 7.484H2.332C2.396 7.484 2.46 7.484 2.524 7.484C2.596 7.484 2.664 7.48 2.728 7.472C2.76 7.504 2.8 7.516 2.848 7.508C2.896 7.5 2.924 7.528 2.932 7.592C2.924 7.624 2.916 7.652 2.908 7.676C2.908 7.7 2.908 7.724 2.908 7.748V7.904C2.908 7.984 2.916 8.088 2.932 8.216C2.956 8.336 2.988 8.456 3.028 8.576C3.076 8.688 3.132 8.788 3.196 8.876C3.26 8.956 3.34 8.996 3.436 8.996H3.628C3.66 9.02 3.692 9.032 3.724 9.032C3.804 9.032 3.88 9 3.952 8.936C4.024 8.864 4.084 8.776 4.132 8.672C4.18 8.568 4.216 8.452 4.24 8.324C4.272 8.196 4.288 8.076 4.288 7.964V7.724C4.288 7.636 4.284 7.552 4.276 7.472C4.276 7.384 4.276 7.3 4.276 7.22V7.16C4.276 7.064 4.268 7.008 4.252 6.992C4.236 6.976 4.228 6.96 4.228 6.944C4.244 6.944 4.252 6.924 4.252 6.884C4.252 6.844 4.248 6.792 4.24 6.728C4.232 6.664 4.228 6.6 4.228 6.536V6.284C4.22 6.276 4.216 6.268 4.216 6.26C4.216 6.244 4.22 6.228 4.228 6.212C4.244 6.196 4.252 6.18 4.252 6.164C4.252 6.14 4.248 6.124 4.24 6.116C4.248 5.988 4.252 5.856 4.252 5.72C4.26 5.584 4.264 5.448 4.264 5.312C4.264 5.152 4.256 4.996 4.24 4.844C4.224 4.692 4.216 4.54 4.216 4.388C4.216 4.348 4.22 4.312 4.228 4.28C4.244 4.24 4.252 4.2 4.252 4.16C4.252 3.952 4.248 3.752 4.24 3.56C4.232 3.368 4.228 3.176 4.228 2.984C4.228 2.896 4.228 2.808 4.228 2.72C4.236 2.624 4.244 2.528 4.252 2.432L4.3 2.396H5.056C5.184 2.396 5.308 2.396 5.428 2.396ZM5.824 6.032C5.832 5.912 5.84 5.796 5.848 5.684C5.784 5.172 5.764 4.66 5.788 4.148C5.812 3.636 5.792 3.116 5.728 2.588C5.712 2.588 5.688 2.584 5.656 2.576C5.632 2.568 5.608 2.564 5.584 2.564C5.56 2.564 5.532 2.572 5.5 2.588C5.476 2.604 5.44 2.612 5.392 2.612C5.28 2.612 5.164 2.604 5.044 2.588C4.932 2.564 4.82 2.552 4.708 2.552C4.612 2.552 4.524 2.564 4.444 2.588L4.42 3.044C4.468 3.748 4.508 4.424 4.54 5.072C4.572 5.712 4.588 6.38 4.588 7.076C4.588 7.196 4.584 7.304 4.576 7.4C4.568 7.496 4.552 7.552 4.528 7.568C4.52 7.824 4.5 8.072 4.468 8.312C4.444 8.552 4.336 8.768 4.144 8.96C4.056 9.016 3.952 9.084 3.832 9.164C3.712 9.244 3.624 9.284 3.568 9.284C3.424 9.284 3.288 9.24 3.16 9.152C3.04 9.064 2.932 8.956 2.836 8.828C2.748 8.7 2.676 8.56 2.62 8.408C2.572 8.256 2.548 8.112 2.548 7.976C2.516 7.944 2.5 7.9 2.5 7.844C2.5 7.804 2.504 7.78 2.512 7.772C2.424 7.756 2.344 7.736 2.272 7.712C2.2 7.688 2.12 7.676 2.032 7.676C1.992 7.676 1.956 7.68 1.924 7.688C1.892 7.696 1.856 7.7 1.816 7.7C1.72 7.7 1.632 7.688 1.552 7.664C1.48 7.632 1.4 7.616 1.312 7.616C1.272 7.616 1.24 7.624 1.216 7.64C1.2 7.648 1.192 7.68 1.192 7.736C1.192 7.792 1.216 7.824 1.264 7.832C1.256 7.856 1.252 7.912 1.252 8V8.156C1.252 8.46 1.284 8.772 1.348 9.092C1.42 9.412 1.54 9.704 1.708 9.968C1.876 10.232 2.096 10.452 2.368 10.628C2.648 10.796 2.996 10.88 3.412 10.88C3.836 10.88 4.244 10.788 4.636 10.604C4.732 10.596 4.812 10.572 4.876 10.532C4.948 10.484 5.012 10.428 5.068 10.364C5.132 10.3 5.192 10.232 5.248 10.16C5.304 10.088 5.372 10.02 5.452 9.956C5.62 9.612 5.728 9.248 5.776 8.864C5.824 8.48 5.848 8.084 5.848 7.676C5.848 7.46 5.844 7.244 5.836 7.028C5.828 6.804 5.824 6.584 5.824 6.368C5.824 6.256 5.824 6.144 5.824 6.032Z" fill="#AFA0A0"/>
<path d="M8.697 11.997C8.807 12.151 8.89867 12.338 8.972 12.558L8.983 12.569V12.58C9.01233 12.6387 9.049 12.7267 9.093 12.844C9.14433 12.9613 9.17 13.0933 9.17 13.24C9.17 13.2987 9.16633 13.3647 9.159 13.438C9.159 13.504 9.15533 13.5773 9.148 13.658V13.713L9.126 13.735C9.126 13.7277 9.10033 13.768 9.049 13.856C8.99767 13.944 8.93533 14.0503 8.862 14.175C8.796 14.2923 8.72267 14.406 8.642 14.516C8.56133 14.626 8.49167 14.6993 8.433 14.736C8.37433 14.7727 8.29367 14.8167 8.191 14.868C8.09567 14.9193 7.98567 14.978 7.861 15.044L7.828 15C7.68133 15.066 7.52733 15.11 7.366 15.132C7.20467 15.1613 7.03967 15.176 6.871 15.176C6.72433 15.176 6.57767 15.1687 6.431 15.154C6.28433 15.1467 6.145 15.1357 6.013 15.121C5.86633 15.121 5.70867 15.1283 5.54 15.143C5.37867 15.165 5.21733 15.176 5.056 15.176C4.95333 15.176 4.85067 15.1687 4.748 15.154C4.65267 15.1393 4.56467 15.1137 4.484 15.077C4.47667 14.9743 4.473 14.868 4.473 14.758C4.473 14.648 4.473 14.538 4.473 14.428V13.768C4.473 13.1007 4.47667 12.4333 4.484 11.766C4.49867 11.0987 4.506 10.4313 4.506 9.764C4.506 9.13333 4.495 8.50267 4.473 7.872L4.484 7.388C4.51333 7.33667 4.55 7.311 4.594 7.311C4.64533 7.30367 4.693 7.29267 4.737 7.278C4.77367 7.278 4.80667 7.28167 4.836 7.289C4.87267 7.289 4.90933 7.289 4.946 7.289C5.232 7.289 5.52167 7.27067 5.815 7.234C6.10833 7.19733 6.398 7.179 6.684 7.179C6.99933 7.179 7.26333 7.212 7.476 7.278C7.68867 7.344 7.86833 7.43933 8.015 7.564C8.16167 7.68133 8.28633 7.82067 8.389 7.982C8.499 8.14333 8.60533 8.323 8.708 8.521C8.82533 8.82167 8.884 9.12233 8.884 9.423C8.884 9.797 8.79233 10.1197 8.609 10.391C8.433 10.6623 8.20933 10.8933 7.938 11.084C7.916 11.106 7.905 11.128 7.905 11.15C7.905 11.2013 7.93067 11.2527 7.982 11.304L8.015 11.337C8.015 11.337 8.05167 11.359 8.125 11.403C8.19833 11.447 8.28267 11.5203 8.378 11.623C8.48067 11.7183 8.587 11.843 8.697 11.997ZM7.861 11.348C7.861 11.3407 7.86467 11.337 7.872 11.337L7.806 11.293C7.718 11.2417 7.674 11.172 7.674 11.084C7.74 10.974 7.82433 10.8823 7.927 10.809C8.02967 10.7283 8.125 10.644 8.213 10.556C8.30833 10.468 8.389 10.369 8.455 10.259C8.52833 10.1417 8.565 9.98767 8.565 9.797V9.709C8.565 9.65033 8.56133 9.61367 8.554 9.599V9.423C8.554 9.17367 8.51733 8.94633 8.444 8.741C8.378 8.53567 8.29367 8.356 8.191 8.202C8.08833 8.048 7.97833 7.92333 7.861 7.828C7.74367 7.73267 7.641 7.67033 7.553 7.641C7.36233 7.553 7.124 7.49067 6.838 7.454C6.552 7.41733 6.29167 7.399 6.057 7.399C5.771 7.399 5.54 7.40267 5.364 7.41C5.19533 7.41 5.06333 7.41367 4.968 7.421C4.88 7.42833 4.82133 7.43567 4.792 7.443C4.76267 7.45033 4.748 7.454 4.748 7.454V7.498C4.748 7.542 4.74433 7.56767 4.737 7.575V8.312C4.74433 8.63467 4.748 8.906 4.748 9.126C4.75533 9.346 4.759 9.544 4.759 9.72C4.759 9.88867 4.759 10.05 4.759 10.204C4.76633 10.358 4.77733 10.5303 4.792 10.721C4.76267 10.963 4.74433 11.2087 4.737 11.458C4.72967 11.7073 4.726 11.9603 4.726 12.217C4.726 12.437 4.726 12.657 4.726 12.877C4.73333 13.0897 4.737 13.3023 4.737 13.515H4.726C4.726 13.5223 4.71867 13.504 4.704 13.46C4.68933 13.4747 4.682 13.5003 4.682 13.537C4.682 13.5517 4.682 13.57 4.682 13.592C4.68933 13.614 4.693 13.636 4.693 13.658C4.693 13.7093 4.68933 13.7643 4.682 13.823C4.67467 13.8817 4.671 13.944 4.671 14.01C4.671 14.1127 4.671 14.2227 4.671 14.34C4.67833 14.45 4.682 14.5563 4.682 14.659V14.824C4.682 14.89 4.67833 14.9303 4.671 14.945L4.946 14.956L4.814 14.989C5.06333 14.967 5.32367 14.956 5.595 14.956C5.75633 14.956 5.914 14.9597 6.068 14.967C6.22933 14.967 6.39067 14.967 6.552 14.967C6.66933 14.967 6.80867 14.9633 6.97 14.956C7.13867 14.9487 7.29633 14.9377 7.443 14.923C7.597 14.901 7.729 14.8717 7.839 14.835C7.949 14.7983 8.01133 14.7507 8.026 14.692C8.19467 14.5233 8.33767 14.384 8.455 14.274C8.57233 14.1567 8.664 14.0467 8.73 13.944C8.80333 13.8413 8.85467 13.7313 8.884 13.614C8.92067 13.4967 8.939 13.35 8.939 13.174C8.939 13.108 8.93167 13.0053 8.917 12.866C8.90233 12.7267 8.862 12.5727 8.796 12.404C8.73733 12.228 8.642 12.0557 8.51 11.887C8.38533 11.711 8.20933 11.557 7.982 11.425C7.90133 11.381 7.861 11.3553 7.861 11.348ZM6.343 11.832C6.51167 11.8393 6.68033 11.865 6.849 11.909C7.03233 11.9383 7.18267 12.041 7.3 12.217C7.41733 12.393 7.476 12.5983 7.476 12.833C7.476 13.075 7.421 13.2547 7.311 13.372C7.20833 13.4893 7.07633 13.57 6.915 13.614C6.761 13.6507 6.59233 13.669 6.409 13.669C6.233 13.6617 6.07167 13.6617 5.925 13.669L5.771 13.57L5.837 11.799C6.00567 11.8137 6.17433 11.8247 6.343 11.832ZM5.815 9.104C5.815 9.00867 5.84433 8.93167 5.903 8.873C5.97633 8.86567 6.05333 8.85833 6.134 8.851C6.21467 8.84367 6.29533 8.84 6.376 8.84C6.47867 8.84 6.596 8.851 6.728 8.873C6.86 8.88767 6.981 8.92433 7.091 8.983C7.20833 9.03433 7.30367 9.10767 7.377 9.203C7.45767 9.291 7.498 9.40467 7.498 9.544C7.498 9.74933 7.454 9.91433 7.366 10.039C7.28533 10.1637 7.179 10.259 7.047 10.325C6.92233 10.391 6.78667 10.435 6.64 10.457C6.49333 10.479 6.35767 10.49 6.233 10.49C6.10833 10.49 6.00933 10.4753 5.936 10.446C5.86267 10.4167 5.826 10.3177 5.826 10.149C5.826 10.0243 5.83333 9.907 5.848 9.797C5.87 9.67967 5.881 9.55867 5.881 9.434V9.324C5.881 9.302 5.87367 9.26167 5.859 9.203L5.826 9.335C5.826 9.29833 5.82233 9.26167 5.815 9.225C5.815 9.181 5.815 9.14067 5.815 9.104ZM6.761 10.347C6.90033 10.3177 7.02133 10.2407 7.124 10.116L6.904 10.182C7.014 10.1013 7.102 10.0023 7.168 9.885C7.234 9.76767 7.267 9.64667 7.267 9.522C7.267 9.44133 7.245 9.37167 7.201 9.313C7.157 9.25433 7.102 9.20667 7.036 9.17C6.97733 9.126 6.91133 9.09667 6.838 9.082C6.76467 9.06 6.69867 9.049 6.64 9.049C6.54467 9.049 6.44933 9.038 6.354 9.016C6.266 8.994 6.18167 8.983 6.101 8.983C6.08633 8.983 6.06433 8.98667 6.035 8.994C6.013 8.994 5.98367 8.99767 5.947 9.005C5.947 9.137 5.94333 9.27633 5.936 9.423C5.92867 9.56967 5.925 9.71633 5.925 9.863C5.925 10.0537 5.936 10.226 5.958 10.38C6.01667 10.38 6.07533 10.3837 6.134 10.391C6.2 10.391 6.26233 10.391 6.321 10.391C6.475 10.391 6.62167 10.3763 6.761 10.347ZM6.717 13.493C6.849 13.4563 6.948 13.3757 7.014 13.251C7.07267 13.1777 7.113 13.1007 7.135 13.02C7.16433 12.932 7.179 12.844 7.179 12.756C7.179 12.5653 7.135 12.426 7.047 12.338C6.959 12.25 6.849 12.1913 6.717 12.162C6.59233 12.1327 6.46033 12.1217 6.321 12.129C6.18167 12.129 6.06067 12.1253 5.958 12.118V12.745C5.958 12.8403 5.958 12.921 5.958 12.987C5.96533 13.053 5.969 13.108 5.969 13.152C5.969 13.3207 5.95433 13.438 5.925 13.504C5.93233 13.5113 5.95067 13.515 5.98 13.515H6.057C6.101 13.515 6.145 13.5223 6.189 13.537C6.233 13.5443 6.299 13.548 6.387 13.548C6.48233 13.548 6.59233 13.5297 6.717 13.493Z" fill="#AFA0A0"/>
<path d="M7.176 13.109C7.176 13.0797 7.16867 13.065 7.154 13.065L7.22 12.306C7.22 12.284 7.209 12.273 7.187 12.273C7.41433 11.833 7.67467 11.415 7.968 11.019C8.26133 10.6157 8.54733 10.205 8.826 9.787C9.03867 9.50833 9.22933 9.21867 9.398 8.918C9.56667 8.61733 9.76833 8.32767 10.003 8.049C9.651 8.08567 9.29533 8.11133 8.936 8.126C8.57667 8.14067 8.221 8.15533 7.869 8.17C7.78833 8.17 7.704 8.15533 7.616 8.126C7.528 8.09667 7.43633 8.07833 7.341 8.071C7.297 8.08567 7.27867 8.093 7.286 8.093C7.24933 8.093 7.22733 8.04533 7.22 7.95C7.22 7.84733 7.22 7.70433 7.22 7.521C7.22 7.323 7.22367 7.12867 7.231 6.938C7.24567 6.74 7.26033 6.55667 7.275 6.388C7.34833 6.388 7.42167 6.388 7.495 6.388C7.56833 6.38067 7.64533 6.377 7.726 6.377C7.93133 6.377 8.14033 6.388 8.353 6.41H8.298C8.29067 6.41 8.32733 6.421 8.408 6.443C8.48867 6.465 8.55833 6.476 8.617 6.476C8.64633 6.476 8.705 6.465 8.793 6.443C8.99833 6.465 9.211 6.476 9.431 6.476C9.783 6.476 10.124 6.465 10.454 6.443C10.784 6.41367 11.125 6.399 11.477 6.399H11.752C11.7813 6.40633 11.796 6.42467 11.796 6.454C11.8033 6.476 11.818 6.49433 11.84 6.509C11.8253 6.619 11.8143 6.72533 11.807 6.828C11.7997 6.93067 11.796 7.03333 11.796 7.136C11.796 7.30467 11.7997 7.477 11.807 7.653C11.8217 7.82167 11.829 8.005 11.829 8.203L11.818 8.346C11.5833 8.72 11.3523 9.072 11.125 9.402C10.905 9.732 10.6887 10.084 10.476 10.458C10.3587 10.656 10.223 10.8393 10.069 11.008C9.92233 11.1693 9.78667 11.3453 9.662 11.536C9.662 11.5067 9.65833 11.4883 9.651 11.481C9.54833 11.5837 9.453 11.6937 9.365 11.811C9.28433 11.921 9.21467 12.0347 9.156 12.152V12.262H9.222C9.22933 12.262 9.24033 12.2547 9.255 12.24L9.453 12.251C9.475 12.251 9.486 12.2547 9.486 12.262C9.486 12.262 9.497 12.2657 9.519 12.273C9.541 12.273 9.58133 12.2767 9.64 12.284C9.69867 12.2913 9.80133 12.2987 9.948 12.306L10.047 12.284L10.036 12.273H10.124V12.306C10.3367 12.3353 10.52 12.3573 10.674 12.372C10.828 12.3867 10.9563 12.4013 11.059 12.416L11.169 12.405C11.169 12.405 11.191 12.3977 11.235 12.383L11.224 12.35L11.125 12.339H11.213C11.235 12.339 11.2607 12.339 11.29 12.339C11.3193 12.3317 11.3487 12.328 11.378 12.328C11.554 12.328 11.6933 12.372 11.796 12.46L11.818 12.339C11.8693 12.4343 11.895 12.5517 11.895 12.691C11.895 12.8597 11.8803 12.999 11.851 13.109C11.8803 13.1677 11.895 13.252 11.895 13.362C11.895 13.406 11.8913 13.45 11.884 13.494C11.884 13.538 11.884 13.582 11.884 13.626C11.928 13.6627 11.9427 13.714 11.928 13.78C11.9207 13.8387 11.9353 13.8937 11.972 13.945C11.9573 13.967 11.928 13.978 11.884 13.978C11.8693 13.978 11.8547 13.978 11.84 13.978C11.8327 13.9707 11.8217 13.967 11.807 13.967C11.7923 13.9817 11.7703 13.9927 11.741 14C11.719 14 11.6713 14 11.598 14C11.532 14.0073 11.433 14.011 11.301 14.011C11.1763 14.011 11.0077 14.011 10.795 14.011H8.012C7.87267 14.011 7.73333 14.0073 7.594 14C7.462 14 7.32633 13.9963 7.187 13.989C7.17233 13.9303 7.16133 13.8643 7.154 13.791C7.154 13.7177 7.154 13.6407 7.154 13.56C7.154 13.4353 7.15767 13.34 7.165 13.274C7.17233 13.2007 7.176 13.1457 7.176 13.109ZM11.642 6.542C11.444 6.52 11.2827 6.509 11.158 6.509L10.652 6.564C10.63 6.55667 10.586 6.553 10.52 6.553C10.4687 6.553 10.4283 6.55667 10.399 6.564C10.377 6.564 10.3367 6.56767 10.278 6.575C10.2267 6.575 10.1497 6.57867 10.047 6.586C9.94433 6.59333 9.79033 6.60067 9.585 6.608L9.563 6.575C9.42367 6.58967 9.288 6.60433 9.156 6.619C9.03133 6.62633 8.903 6.63 8.771 6.63C8.69033 6.63 8.60967 6.62633 8.529 6.619C8.44833 6.61167 8.37133 6.60067 8.298 6.586L7.528 6.652C7.53533 6.93067 7.54267 7.15067 7.55 7.312C7.55733 7.466 7.56833 7.56133 7.583 7.598C7.539 7.598 7.517 7.62 7.517 7.664C7.52433 7.708 7.506 7.73367 7.462 7.741C7.616 7.81433 7.71867 7.851 7.77 7.851C7.80667 7.851 7.836 7.83267 7.858 7.796C7.946 7.818 8.07067 7.829 8.232 7.829C8.298 7.829 8.35667 7.829 8.408 7.829C8.46667 7.82167 8.51433 7.818 8.551 7.818C8.65367 7.818 8.75633 7.829 8.859 7.851V7.873C8.74167 7.88033 8.64633 7.884 8.573 7.884C8.49967 7.884 8.44467 7.88767 8.408 7.895C8.44467 7.90233 8.47767 7.90967 8.507 7.917C8.53633 7.917 8.562 7.917 8.584 7.917H9.002C9.03867 7.917 9.07167 7.917 9.101 7.917C9.13767 7.90967 9.17433 7.90233 9.211 7.895C9.20367 7.88767 9.2 7.87667 9.2 7.862C9.2 7.84733 9.211 7.84 9.233 7.84C9.26233 7.84733 9.288 7.851 9.31 7.851C9.33933 7.851 9.36133 7.851 9.376 7.851L9.387 7.895C9.453 7.873 9.52267 7.862 9.596 7.862C9.67667 7.862 9.73167 7.85467 9.761 7.84C9.81967 7.85467 9.85267 7.862 9.86 7.862H10.146C10.1827 7.862 10.2193 7.86567 10.256 7.873C10.3 7.873 10.344 7.88033 10.388 7.895C10.3733 7.90967 10.3587 7.917 10.344 7.917H10.289C10.2817 7.917 10.2707 7.94267 10.256 7.994C10.2487 8.038 10.2377 8.093 10.223 8.159C10.2083 8.225 10.19 8.291 10.168 8.357C10.1533 8.41567 10.1387 8.456 10.124 8.478L9.893 8.764C9.84167 8.83733 9.816 8.885 9.816 8.907L9.761 8.951V8.973C9.73167 9.05367 9.67667 9.14533 9.596 9.248C9.51533 9.35067 9.44933 9.44233 9.398 9.523C9.31733 9.64767 9.24033 9.77233 9.167 9.897C9.101 10.0143 9.04967 10.1097 9.013 10.183L8.98 10.172C8.892 10.326 8.804 10.4433 8.716 10.524C8.628 10.6047 8.55833 10.7147 8.507 10.854C8.397 10.9347 8.309 11.03 8.243 11.14C8.18433 11.25 8.10367 11.3417 8.001 11.415L7.99 11.404L7.957 11.437L7.979 11.426C7.979 11.4333 7.968 11.4517 7.946 11.481C7.93133 11.5103 7.924 11.5397 7.924 11.569C7.93133 11.5763 7.935 11.5837 7.935 11.591C7.83967 11.7377 7.77367 11.8513 7.737 11.932C7.70033 12.0053 7.671 12.064 7.649 12.108C7.63433 12.1447 7.61967 12.1703 7.605 12.185C7.59767 12.1923 7.572 12.207 7.528 12.229C7.52067 12.229 7.517 12.2107 7.517 12.174L7.418 12.306H7.429C7.473 12.306 7.495 12.3243 7.495 12.361C7.48033 12.4783 7.46567 12.647 7.451 12.867C7.43633 13.087 7.42167 13.3657 7.407 13.703C7.45833 13.6957 7.50967 13.692 7.561 13.692C7.61233 13.692 7.66367 13.692 7.715 13.692H8.023C8.75633 13.7213 9.36133 13.747 9.838 13.769C10.322 13.7837 10.6813 13.7947 10.916 13.802L10.861 13.835C10.9417 13.8497 11.0187 13.8643 11.092 13.879C11.1653 13.8863 11.2423 13.89 11.323 13.89C11.4183 13.89 11.4807 13.8717 11.51 13.835C11.5467 13.791 11.5687 13.7433 11.576 13.692C11.5833 13.6333 11.587 13.571 11.587 13.505C11.587 13.439 11.598 13.3803 11.62 13.329C11.62 13.2557 11.6127 13.1787 11.598 13.098C11.5907 13.0173 11.587 12.9293 11.587 12.834C11.587 12.746 11.598 12.658 11.62 12.57C11.158 12.5627 10.6777 12.548 10.179 12.526C9.68767 12.4967 9.211 12.4747 8.749 12.46C8.71967 12.438 8.705 12.4123 8.705 12.383C8.705 12.3463 8.716 12.3097 8.738 12.273C8.99467 11.855 9.266 11.4517 9.552 11.063C9.84533 10.6743 10.113 10.271 10.355 9.853C10.5677 9.53767 10.7913 9.237 11.026 8.951C11.2607 8.665 11.4477 8.379 11.587 8.093L11.642 7.686C11.62 7.80333 11.587 7.895 11.543 7.961C11.5357 7.95367 11.532 7.928 11.532 7.884C11.5467 7.78133 11.565 7.67867 11.587 7.576C11.6163 7.47333 11.631 7.38533 11.631 7.312C11.631 7.25333 11.6273 7.22033 11.62 7.213C11.62 7.081 11.6273 6.94533 11.642 6.806C11.6567 6.66667 11.6823 6.586 11.719 6.564C11.7117 6.564 11.708 6.553 11.708 6.531L11.642 6.542Z" fill="#AFA0A0"/>
</svg>
